# xmcd CD database file
#
# Track frame offsets:
#	150
#	11426
#	36403
#	55312
#	67897
#	94617
#	105874
#	125117
#	146062
#	162069
#	171226
#	184833
#	203597
#	225469
#	243672
#	259474
#	275212
#	284000
#	299775
#	320808
#	333793
#
# Disc length: 4791 seconds
#
# Revision: 3
# Processed by: cddbd v1.5.2PL0 Copyright (c) Steve Scherf et al.
# Submitted via: CDex 1.70beta3
#
DISCID=4812b515
DTITLE=Various Artist - image 8 emotional and relaxing
DYEAR=2009
DGENRE=Easy Listening
TTITLE0=ホワイトオーケストラ - あし笛の踊り
TTITLE1=葉加瀬太郎 - Another Sky
TTITLE2=セリーヌ・ディオン - A WORLD TO BELIEVE IN
TTITLE3=吉俣良 - 篤姫（メインテーマ）
TTITLE4=羽毛田丈史 - ROOKIES 愛のテーマ
TTITLE5=宮本笑里 - Les enfants de la Terre～地球のこどもたち～
TTITLE6=コルネイユ - ロンリー・ナイツ～上を向いて歩こう～
TTITLE7=加古隆 - 明日への遺言
TTITLE8=小松亮太 - リベルタンゴ（２００８大阪ライヴ）
TTITLE9=ゴンザレス三上fromゴンチチ - 課外授業
TTITLE10=カノン - Wings to Fly～翼をください
TTITLE11=古澤巌 - Fine Day!
TTITLE12=吉俣良 - The theme of the flower shop without the rose
TTITLE13=末だ卓 - 幸せのレシピ
TTITLE14=羽毛田丈史・宮本笑里・ゴンザレス三上fromゴンチチ・小松亮太・松谷卓 - Hello,Goodbye
TTITLE15=ジェイク・シマブクロ - In My Life
TTITLE16=服部孝之 - メインテーマ・オブ・華麗なる一族～For TV Edition～
TTITLE17=宮本笑里 - edelweiss
TTITLE18=押尾コータロー - 君がくれた時間
TTITLE19=佐藤直紀feat.TeN - ALWAYS 三丁目の夕日 Opening Title
TTITLE20=feat.TeN - さよならの向う側
EXTD=YEAR: 2009
EXTT0=
EXTT1=
EXTT2=
EXTT3=
EXTT4=
EXTT5=
EXTT6=
EXTT7=
EXTT8=
EXTT9=
EXTT10=
EXTT11=
EXTT12=
EXTT13=
EXTT14=
EXTT15=
EXTT16=
EXTT17=
EXTT18=
EXTT19=
EXTT20=
PLAYORDER=
